<svg width="50" height="50" viewBox="0 0 50 50" fill="none" xmlns="http://www.w3.org/2000/svg">
<g clip-path="url(#clip0_104_2)">
<path d="M39.4375 18.75C38.7915 18.5927 38.1169 18.5948 37.4719 18.7563C37.3359 17.7693 36.897 16.8488 36.2156 16.1219C35.8035 15.7056 35.3128 15.3753 34.7721 15.15C34.2314 14.9247 33.6514 14.8089 33.0656 14.8094L32.9 14.8125H32.8781C32.1906 14.8125 31.5344 14.95 30.9375 15.2C30.7511 14.6533 30.441 14.1571 30.0312 13.75C29.5706 13.3092 29.0222 12.9703 28.4219 12.7555C27.8215 12.5406 27.1827 12.4547 26.5469 12.5031H26.5625C27.4929 11.2704 28.037 9.78958 28.1262 8.24774C28.2153 6.7059 27.8455 5.17223 27.0634 3.84048C26.2813 2.50873 25.1221 1.43867 23.7321 0.765478C22.3421 0.0922863 20.7838 -0.153827 19.254 0.0582312C17.7242 0.27029 16.2916 0.931005 15.1372 1.9569C13.9827 2.9828 13.1582 4.32785 12.7679 5.82212C12.3775 7.31639 12.4388 8.89284 12.944 10.3523C13.4492 11.8117 14.3756 13.0887 15.6062 14.0219L15.625 22.3469C13.9625 22.3893 12.3721 23.0346 11.15 24.1625C9.375 26.0969 9.375 29.0969 9.375 32.8469V35.0969C9.41966 36.7713 9.83591 38.4148 10.5936 39.9087C11.3513 41.4025 12.4316 42.7092 13.7562 43.7344L14.875 44.8469C18.75 48.8156 22.3125 50.0031 30.5625 50.0031C39.5625 50.0031 43.75 44.9719 43.75 34.1906V26.3469C43.75 23.9406 43.0625 19.7188 39.4375 18.75ZM40.625 26.0938V34.1875C40.625 44.7187 36.5937 46.875 30.5625 46.875C22.4375 46.875 19.9375 45.6563 17.125 42.7188L16 41.5625C14.9601 40.828 14.1035 39.8637 13.4965 38.7446C12.8895 37.6255 12.5485 36.3816 12.5 35.1094V32.8125C12.0977 30.592 12.4244 28.3009 13.4312 26.2813C14.0125 25.8688 14.7781 25.5688 15.6125 25.5313L15.6219 27.7188V27.0313L14.5594 31.7188C14.5284 31.7885 14.5115 31.8637 14.5095 31.94C14.5076 32.0163 14.5207 32.0923 14.5481 32.1635C14.5756 32.2347 14.6167 32.2999 14.6693 32.3552C14.7219 32.4105 14.7849 32.455 14.8547 32.4859C14.9245 32.5169 14.9996 32.5339 15.0759 32.5358C15.1523 32.5377 15.2282 32.5246 15.2994 32.4972C15.3707 32.4697 15.4358 32.4286 15.4911 32.376C15.5465 32.3234 15.5909 32.2604 15.6219 32.1906L18.7469 28.4063C18.7673 28.3126 18.7673 28.2156 18.7469 28.1219V10.5938L18.7438 10.4719C18.7438 9.67188 19.0031 8.93438 19.4406 8.33438C19.6004 8.16699 19.7947 8.03639 20.01 7.95166C20.2253 7.86694 20.4565 7.83011 20.6875 7.84375C21.3437 7.84375 21.8719 8.375 21.8719 9.03125V21.1563C21.8719 21.5707 22.0365 21.9681 22.3295 22.2611C22.6225 22.5541 23.02 22.7188 23.4344 22.7188C23.8488 22.7188 24.2462 22.5541 24.5392 22.2611C24.8323 21.9681 24.9969 21.5707 24.9969 21.1563V17.0313C25.0048 16.835 25.052 16.6423 25.1356 16.4646C25.2193 16.2868 25.3378 16.1277 25.4841 15.9966C25.6303 15.8655 25.8014 15.765 25.9872 15.7012C26.173 15.6374 26.3697 15.6115 26.5656 15.625C26.7553 15.5887 26.9507 15.5947 27.1378 15.6425C27.325 15.6904 27.4992 15.779 27.6481 15.902C27.7971 16.0249 27.9171 16.1793 27.9995 16.354C28.0819 16.5286 28.1248 16.7194 28.125 16.9125L28.1219 17.0031V21.1563C28.1219 21.5707 28.2865 21.9681 28.5795 22.2611C28.8725 22.5541 29.27 22.7188 29.6844 22.7188C30.0988 22.7188 30.4962 22.5541 30.7892 22.2611C31.0823 21.9681 31.2469 21.5707 31.2469 21.1563V19.1563C31.3019 18.7931 31.4968 18.4658 31.79 18.2445C32.0831 18.0231 32.4513 17.9253 32.8156 17.9719C33.006 17.9508 33.1987 17.9705 33.3808 18.0298C33.563 18.0891 33.7304 18.1865 33.8719 18.3156C34.1844 18.7188 34.3719 19.2344 34.3719 19.7938V22.4063C34.3768 22.8196 34.5453 23.2141 34.8405 23.5034C35.1357 23.7928 35.5335 23.9533 35.9469 23.95C36.3045 23.9502 36.6518 23.8302 36.933 23.6091C37.2141 23.388 37.4127 23.0788 37.4969 22.7313C37.5695 22.4013 37.7445 22.1027 37.9969 21.8781C38.1063 21.8285 38.2251 21.8028 38.3453 21.8028C38.4655 21.8028 38.5843 21.8285 38.6937 21.8781C39.3717 22.3184 39.9122 22.9404 40.2537 23.673C40.5951 24.4057 40.7238 25.2196 40.625 26.0219L40.6281 26L40.625 26.0938Z" fill="#F8F8F8"/>
</g>
<defs>
<clipPath id="clip0_104_2">
<rect width="50" height="50" fill="white"/>
</clipPath>
</defs>
</svg>
